<svg xmlns="http://www.w3.org/2000/svg" width="245" height="320" fill="none"><path fill="#C5DD8B" stroke="#000" stroke-miterlimit="10" stroke-width="2" d="M60.6 7.7c14.2-7 32.1-7.9 46.2-2.4 6 2.4 8.8 4.9 16.8 6.6 5.6 1.2 10.5 1.3 22.3.8 20-.9 18.9-1.9 23.9-1.6 23.7 1.4 39.6 22.1 40.3 23.1 6.8 9.1 3.4 10.8 11.7 29.7 11.3 25.7 19.3 26.8 21.1 41.5 2.2 17.8-7.7 33-10.6 37.6-7.2 11.3-16.9 18-24.3 26.2-.9 1-1.9 2.1-3.5 3.5-3.2 2.6-4.7 2.8-5.1 3.9-.8 2.7 6.8 6.3 10.6 9.8 12.7 11.8 15.8 29 17.6 43.4 0 0 .6 5.3-.9 12-.4 1.6-.9 3.3-2.2 4.9-1.9 2.2-5.2 4-6.7 3-1.4-1-1.1-4.5 1-8.5-3.6 7.1-6.3 10-8.1 11.4-.2.2-.8.5-1.4 1.2-1.2 1.3-1.8 2.8-4 5.9-6.9 9.4-15.9 14.9-17.2 15.6-4.8 2.9-6.9 3-7.8 4.3l-.4.8c-1.6 4.1 3.8 10.6 9.8 19.6 5.1 7.6 6.1 10.4 5.1 12.5-.7 1.3-2.1 2.4-3.5 2.7-2.7.7-5.1-1-5.9-1.6-3.1-2.2-3.6-5.3-4.7-5.1-1 .2-.6 2.3-2.3 5.5-.9 1.7-1.7 3.1-3.1 3.5-2.2.6-5-1.3-6.3-3.5-1.7-2.8-.7-5.6-1.6-5.9-.9-.2-2.6 2.6-3.5 4.7-1.2 2.8-.9 3.9-2 4.7-1.5 1.1-4.2.4-5.9-.8-3.7-2.7-1.8-8.3-2.7-18.8-.5-5-1.6-17.3-6.7-18.8-.2 0-.5-.1-1-.1-4.4-.3-7.3.9-10.3 1.7-2.4.6-4.3.7-8 .9-8.3.4-15.2.8-19.8-2.5-.5-.3-1.5-1.1-2.3-.8-1.8.6-2.1 4.6-2 7 .3 6.8 4.7 12.9 10.2 20.4 2 2.8 3.7 4.8 3.1 7-.6 2.4-3.4 4.6-5.9 4.3-4.5-.5-6.4-9.1-8.2-8.6-1.7.4.1 7.6-3.1 9.4-2 1.1-5.3-.2-7-1.6-1.2-1-2-2.1-2.3-2.7-1.3-2.4-1.2-4.8-1.2-4.7-.1 0 1.5 6.3-1.2 8.6-1.6 1.4-4.5 1-6.3 0-2.7-1.4-3.5-4.3-3.9-5.9-1.4-5.3 1.1-7.8 1.2-14.1 0-1.3-.7-4.1-2-9.8-3.5-15.1-4.6-17.4-5.6-19.1-2.5-4.2-4.1-4.4-8-8.7-11.8-12.6-9.2-25.6-15.7-27-3.9-.9-7.8 3.2-14.1 9.8-3.5 3.6-9.5 9.9-13.3 20-3.1 8.1-3.6 15.6-7.4 16.2-.9.1-1.6-.2-2.4-.5-5-2.2-6.2-9.8-7.4-17.6-1.7-10.9-.4-19.9.4-24.6 1-6.4 1.7-5.6 1.9-9.5.7-11.7-4.9-17.3-1.9-21 2.9-3.6 9.6-.1 12.2-4.1 1.1-1.7.3-2.8-.1-9.8-.4-6.7-.5-10.1 1.1-11.6 2.8-2.5 9-1 11.2-.5 3.4.8 5.2 2.1 6.2 1.2 1-.9-.3-2.8-.2-6.9.1-2.8.9-4.8 1.6-6.6 1.3-3.4 2.3-6.1 4.8-7.1 1.1-.4 2.3-.4 4.9.4 7.6 2.3 12.2 6.3 12.8 5.6.3-.4-1.1-1.5-2-3.5-1.5-3.6-.2-7.3.2-8.5.3-1 2.7-7.5 7.5-8.2 1.3-.2 2.4.2 4.6.8 2 .6 4.2 1.6 7.8 3.9 5.7 3.8 6.3 5.4 7.8 5.1 2.7-.6 5.1-6.3 3.4-10.4-1.5-3.5-5-3.5-15.3-7.8-5.2-2.2-10.5-4.5-16-8.6-3.2-2.3-6.9-5.1-10.2-9.8-5-7.1-3.3-10.8-8.2-21.5-3.3-7.3-4.2-6.3-7-12.1C25 74.7 25.9 64 26.3 59c1.2-14.1 7.1-23.9 9.8-28.2 3.1-5 10.4-16.2 24.5-23.1Z"/><path fill="#C5DD8B" stroke="#000" stroke-miterlimit="10" stroke-width="2" d="M2.7 205.6c-1.9 2.6-.8 6.9-.4 8.5l.7 2.8c.4 1.4.5 2 .6 2.3 0 0 0 .1.1.3.7 2.5 1.8 4.5 1.7 6.6 0 1.6-.7 2.9-.8 2.9 0 0 .7-3.1 1.4-5.5.5-1.5 2.1-6.8 5.9-13.4 2.8-4.9 4.3-6.5 3.6-7.5-.6-.9-2.7-.5-6.1.3-3.8.8-5.7 1.2-6.7 2.7Z"/><path fill="#C5DD8B" stroke="#000" stroke-miterlimit="10" stroke-width="2" d="M15.8 180.7c-1.2 1.4-.7 2.5-.6 8.7.2 8.8-.7 12.8.4 13.1.7.2 1.3-1.5 4.2-5.6 2.8-3.9 5.7-7 6.8-8.2 1.5-1.7 2.9-3.5 4.5-5.1 1.8-1.7 2.8-2.5 2.6-3.2-.3-.8-2.1-.6-5.5-.6-7.6-.1-10.6-1.2-12.4.9Z"/><path fill="#C5DD8B" stroke="#000" stroke-miterlimit="10" stroke-width="2" d="M38.5 160.8c-.4.2-1.8 1-3.2 4.6-.5 1.2-1.1 3-1.8 8.7-.3 3 1.4 5 .2 6.9-.5.8-1.3 1.3-1.2 1.4.1.2 2.7-1.5 4.2-2.6 1.3-.9 2.3-1.7 2.7-2 1.7-1.4 2.7-2.4 4.2-3.6 2.5-1.9 3.2-1.7 9.7-5.3 3.7-2 4.2-2.6 4.2-3.1-.1-1-2.3-1-7.4-3-3.3-1.3-4.6-2.2-7.5-2.5-1.8-.1-2.9-.2-4.1.5Z"/><path fill="#C5DD8B" stroke="#000" stroke-miterlimit="10" stroke-width="2" d="M63.1 146.8c-3.4.8-5.3 3.9-5.7 4.6-1 1.6-1.4 3.5-1.6 4.1-.2.7-.3 1.3-.3 1.5-.1.4-.2 1.5-.2 3.3 0 2 0 3.1.4 4.2.3.7.4 1.2.8 1.5 1.5 1.3 4.8-1.1 9.6-2.9 7.2-2.8 11-1.5 15.5-5 .6-.4 2.9-2.2 2.7-2.4 0-.1-.5.3-1 .4-2 .7-3.9-3-8.3-5.4-3.8-2-5.1-3.3-8.3-3.9-2.1-.4-3.3-.1-3.6 0Z"/><path fill="#C5DD8B" d="M130.2 253.4c-1.6 4.7-3.8 8.3-5.5 10.6-1.7 2.4-5.6 7.7-12.5 11.4-5.1 2.7-8.7 2.9-8.6 3.9.1 1.5 7.5 2.4 12.9 2.7 12.2.7 21.8-1.4 25.8-2.4 17.2-4 28.8-6.8 39.1-16.8 6.8-6.6 10.4-13.8 12.5-18 .9-1.8 4.8-9.7 6.9-21.3 0 0 .4-2.1.7-4.4 2-14.3-1.8-34.8-2.9-40.8 13.6 8.2 19.5 16.1 21.9 20.4.3.4.7 1.2 1.2 2.2 4.9 9.2 5.7 20.6 5.8 22.1.3 4.9 0 8.3-.2 11-.7 6.5-1.8 8.6-2.5 9.7-1.5 2.4-3.5 3.8-4.7 4.7-2.8 2-5.3 2.9-6.3 3.1-2.6.8-5.2 1.5-6.3.4-1-1 .2-2.9 2-9.8 1.2-4.7 1.3-6 1.4-6.6.1-3.3-.7-6-1.5-7.7-.8-1.2-1.9-2.6-3.4-4-1.7-1.6-3.4-2.7-4.7-3.4"/><path stroke="#000" stroke-miterlimit="10" stroke-width="2" d="M130.2 253.4c-1.6 4.7-3.8 8.3-5.5 10.6-1.7 2.4-5.6 7.7-12.5 11.4-5.1 2.7-8.7 2.9-8.6 3.9.1 1.5 7.5 2.4 12.9 2.7 12.2.7 21.8-1.4 25.8-2.4 17.2-4 28.8-6.8 39.1-16.8 6.8-6.6 10.4-13.8 12.5-18 .9-1.8 4.8-9.7 6.9-21.3 0 0 .4-2.1.7-4.4 2-14.3-1.8-34.8-2.9-40.8 13.6 8.2 19.5 16.1 21.9 20.4.3.4.7 1.2 1.2 2.2 4.9 9.2 5.7 20.6 5.8 22.1.3 4.9 0 8.3-.2 11-.7 6.5-1.8 8.6-2.5 9.7-1.5 2.4-3.5 3.8-4.7 4.7-2.8 2-5.3 2.9-6.3 3.1-2.6.8-5.2 1.5-6.3.4-1-1 .2-2.9 2-9.8 1.2-4.7 1.3-6 1.4-6.6.1-3.3-.7-6-1.5-7.7-.8-1.2-1.9-2.6-3.4-4-1.7-1.6-3.4-2.7-4.7-3.4"/><path fill="#C5DD8B" d="M87.2 179.8c-.5 2-1 5.6 0 9.8.2.9 2.2 8.6 9 12.9 7.3 4.6 11.2-.4 21.9 4.3 6 2.6 9 6.1 10.6 8.6.8 1.2 2.5 3.6 2.3 7v.1c0 3.4-1.9 5.3-3.1 7.8-1.5 3-1.6 5.6-1.7 7.2-.1 1.7-.3 5.5 1.3 6.1 1.6.6 4.1-2.1 5.3-3.3.5-.5 1.2-1.3 2.5-3.4 2.2-3.4 3.4-6.3 3.5-6.3.3.1-4.2 7.8-1.6 11 1.1 1.3 3.2 1.6 4.7 1.2 1.4-.4 2.2-1.3 5.1-6.3 4.2-7.1 4.7-8.8 5.1-10.2.4-1.8.6-3 .8-5.5v-.1c.6-6.7 0-10.9 0-10.9-.9-6.3-4.5-10.9-5.5-12.1-2.6-3.2-5.2-5-7-6.3-4.5-3-6-2.6-12.1-6.3-3.3-2-5.6-3.8-6.3-4.3-3.1-2.5-5.4-4.8-7-6.6"/><path stroke="#000" stroke-miterlimit="10" stroke-width="2" d="M87.2 179.8c-.5 2-1 5.6 0 9.8.2.9 2.2 8.6 9 12.9 7.3 4.6 11.2-.4 21.9 4.3 6 2.6 9 6.1 10.6 8.6.8 1.2 2.5 3.6 2.3 7v.1c0 3.4-1.9 5.3-3.1 7.8-1.5 3-1.6 5.6-1.7 7.2-.1 1.7-.3 5.5 1.3 6.1 1.6.6 4.1-2.1 5.3-3.3.5-.5 1.2-1.3 2.5-3.4 2.2-3.4 3.4-6.3 3.5-6.3.3.1-4.2 7.8-1.6 11 1.1 1.3 3.2 1.6 4.7 1.2 1.4-.4 2.2-1.3 5.1-6.3 4.2-7.1 4.7-8.8 5.1-10.2.4-1.8.6-3 .8-5.5v-.1c.6-6.7 0-10.9 0-10.9-.9-6.3-4.5-10.9-5.5-12.1-2.6-3.2-5.2-5-7-6.3-4.5-3-6-2.6-12.1-6.3-3.3-2-5.6-3.8-6.3-4.3-3.1-2.5-5.4-4.8-7-6.6"/><path fill="#C5DD8B" d="M130.9 220.8c.9.9 2.8 2.8 6 3.7 3.4 1.1 6.2.6 7.4.3 2.8-1 5.7-1.9 8.5-2.9"/><path stroke="#000" stroke-miterlimit="10" stroke-width="2" d="M130.9 220.8c.9.9 2.8 2.8 6 3.7 3.4 1.1 6.2.6 7.4.3 2.8-1 5.7-1.9 8.5-2.9"/><path fill="#000" stroke="#000" stroke-miterlimit="10" d="M157.7 41c3.3-1.8 7.6-1.4 8.1-1.4.2 0 .4 0 .5.1 4.5.6 7.2 4.8 7.5 5.4 3.2 5.2 1.4 11.7.8 11.7-.5 0-.5-4.4-3.5-9.1-.8-1.2-1.7-2.3-3.2-3-1.3-.6-2.5-.7-3.6-.7-2.6-.1-4.7.6-5.4.9-4.2 1.6-5.8 4.6-6.3 4.3-.5-.6 1-5.9 5.1-8.2ZM41.2 36.8c-.2.1-.8.3-1.1.8-.4.6-.3 1.3 0 2.6.2 1.2.6 2 .7 2.3.4.9.8 2 1.7 3 .6.7 1.5 1.4 1.7 1.2.2-.1-.1-.8-.5-1.8-.2-.5-.3-.6-.4-.9-.4-1-.5-1.8-.6-2.5-.2-1.2-.3-1.8-.1-2.4.1-.5.3-.8.3-1.4 0-.2-.1-.8-.4-1-.5-.2-.9 0-1.3.1ZM65.4 38.7c.2.1 1 .4 1.3 1 .4.7.2 1.4-.4 2.6-.5 1.1-1 1.9-1.2 2.1-.6.8-1.3 1.8-2.7 2.6-.9.6-2.1 1.1-2.3.9-.2-.1.3-.8 1-1.7.3-.4.4-.5.6-.8.7-.9 1-1.7 1.2-2.4.4-1.2.6-1.8.5-2.4-.1-.5-.3-.8-.2-1.4.1-.2.2-.8.7-.9.5 0 1.1.3 1.5.4ZM65.2 99.6c-7.6-1.5-16.8-2.7-27.4-2.8l27.4 2.8ZM75 101.2c-.1 0-.1-.1-.2-.1h-.2c-.5 0-1-.1-1.5-.3-.3-.1-.6-.1-.8-.2-.1 0-.2-.1-.3-.1H71.7c-.7 0-1.3-.1-1.8-.3-.2 0-.5-.1-.7-.1l-4-.4c3 .6 5.8 1.2 8.2 1.9 1.7.4 3.7.9 5.9 1.6l-4.3-2ZM116 118.9c-1.1-.5-3.4-1.6-4.9-2.3-3.9-1.9-6.5-3.5-9.7-5.1-8.4-4.3-16-6.8-22-8.5l21.4 8.9c2.8 1.6 5.8 3.2 8.9 4.8 0 0 5.3 2.7 10 4.6 13.7 5.7 49-7.7 49.1-7.4 0 .1-5.8 2.6-15.3 5.5-2 .6-3 .9-3.9 1.2-10.6 2.8-23.9 2.6-33.6-1.7Z"/><path fill="#fff" stroke="#000" stroke-miterlimit="10" d="M53.9 98.7c-1.3 1-1 3.4-.6 6.3.3 2.4.8 5.3 3 7.8 1.1 1.2 2.2 2.5 3.8 2.5 2.4 0 4.1-3 5.2-4.8 1-1.7 2.2-4.2 2.2-7.3 0-1.2 0-1.8-.4-2.4-1-1.5-2.9-1.1-8.3-1.9-3.4-.5-4.1-.8-4.9-.2ZM78 102.9c-2.1 1.5-1.3 7.1-1.1 8.4 0 .2.1.4.1.5.3 1.9 1.5 7.9 4.9 8.5 1.9.3 3.7-1.1 4.7-1.8 1.6-1.2 2.5-2.6 3.3-3.8.7-1.2 1.2-2.2 1.5-2.9.8-1.9 1.2-2.8 1-3.4-.3-1.3-1.9-1.8-6.5-3.4-6.6-2.3-7.2-2.6-7.9-2.1ZM102.6 113.7l-.3.3c-2.9 3.1-1.2 9.4-1.1 10 .6 2.2 1.1 3.9 2.5 4.6 1.5.8 3.5.2 5-.2 1.1-.3 2-.7 2.5-1 .7-.4 1.8-1 3-2.1.5-.5 1.4-1.4 2.1-2.7.6-1.1.9-1.7.8-2.3-.1-1.4-2-1.9-5.9-3.6-4.9-2.4-7.2-4.1-8.6-3ZM129 123c-2 2.2.2 6.8.6 7.6 1.1 2.3 3.7 6 6.5 5.6 1-.1 1.8-.9 3.4-2.6 1.7-1.7 3-2.9 3.7-5.1.5-1.4.5-2.6.6-4.1.1-1.3.1-1.9-.2-2.3-.8-1.1-3-.4-6.9 0-5.4.7-6.6-.3-7.7.9Z"/><path fill="#ACD169" stroke="#fff" stroke-miterlimit="10" d="M39.2 198.2a4.9 4.9 0 1 0 0-9.8 4.9 4.9 0 0 0 0 9.8Z"/><path fill="#ACD169" d="M90.9 232.7a4.9 4.9 0 1 0 0-9.8 4.9 4.9 0 0 0 0 9.8ZM39.6 198.7a5.6 5.6 0 1 0 0-11.2 5.6 5.6 0 0 0 0 11.2Z"/><path fill="#ACD169" d="M41.1 195.3c.055 0 .1-.313.1-.7 0-.387-.045-.7-.1-.7-.055 0-.1.313-.1.7 0 .387.045.7.1.7ZM43.3 194.6a.6.6 0 1 0 0-1.2.6.6 0 0 0 0 1.2ZM49.6 184.5a3.5 3.5 0 1 0 0-7 3.5 3.5 0 0 0 0 7ZM26.4 205.4a2.8 2.8 0 1 0 0-5.6 2.8 2.8 0 0 0 0 5.6ZM35.9 211.7a4.8 4.8 0 1 0 0-9.6 4.8 4.8 0 0 0 0 9.6ZM25.1 219.7a4.1 4.1 0 1 0 0-8.2 4.1 4.1 0 0 0 0 8.2ZM15.3 225a2.7 2.7 0 1 0 0-5.4 2.7 2.7 0 0 0 0 5.4ZM96 240.1a1.8 1.8 0 1 0 0-3.6 1.8 1.8 0 0 0 0 3.6ZM84 238.4a2.5 2.5 0 1 0 0-5 2.5 2.5 0 0 0 0 5ZM36.5 236.1a4.7 4.7 0 1 0 0-9.4 4.7 4.7 0 0 0 0 9.4ZM28.7 245.3a2.3 2.3 0 1 0 0-4.6 2.3 2.3 0 0 0 0 4.6ZM19 254.1a3.7 3.7 0 1 0 0-7.4 3.7 3.7 0 0 0 0 7.4ZM14.3 265a1.7 1.7 0 1 0 0-3.4 1.7 1.7 0 0 0 0 3.4ZM13.5 272.6a.8.8 0 1 0 0-1.6.8.8 0 0 0 0 1.6ZM79.4 280.6c1.491 0 2.7-1.522 2.7-3.4s-1.209-3.4-2.7-3.4-2.7 1.522-2.7 3.4 1.209 3.4 2.7 3.4ZM84 292.2a2.5 2.5 0 1 0 0-5 2.5 2.5 0 0 0 0 5ZM88.9 284.3a2.5 2.5 0 1 0 0-5 2.5 2.5 0 0 0 0 5ZM96 291.6a1.8 1.8 0 1 0 0-3.6 1.8 1.8 0 0 0 0 3.6ZM157.8 288a3.1 3.1 0 1 0 0-6.2 3.1 3.1 0 0 0 0 6.2ZM167.6 288.1a1.6 1.6 0 1 0 0-3.2 1.6 1.6 0 0 0 0 3.2ZM169.7 282.2c1.215 0 2.2-.672 2.2-1.5s-.985-1.5-2.2-1.5c-1.215 0-2.2.672-2.2 1.5s.985 1.5 2.2 1.5ZM179.1 277.1a1.5 1.5 0 1 0-.001-3.001 1.5 1.5 0 0 0 .001 3.001ZM186.6 268.5c.663 0 1.2-.806 1.2-1.8s-.537-1.8-1.2-1.8c-.663 0-1.2.806-1.2 1.8s.537 1.8 1.2 1.8ZM72.5 106.6a1.8 1.8 0 1 0 0-3.6 1.8 1.8 0 0 0 0 3.6ZM72.5 116.2a1.8 1.8 0 1 0 0-3.6 1.8 1.8 0 0 0 0 3.6ZM96 116.2a1.8 1.8 0 1 0 0-3.6 1.8 1.8 0 0 0 0 3.6ZM96.8 123.1a1 1 0 1 0 0-2 1 1 0 0 0 0 2ZM121.2 127.7a1.3 1.3 0 1 0 0-2.6 1.3 1.3 0 0 0 0 2.6ZM122.1 134.7a1 1 0 1 0 0-2 1 1 0 0 0 0 2ZM147.8 138.6a2 2 0 1 0 .001-3.999 2 2 0 0 0-.001 3.999ZM156.8 145.4c1.16 0 2.1-.492 2.1-1.1 0-.608-.94-1.1-2.1-1.1-1.16 0-2.1.492-2.1 1.1 0 .608.94 1.1 2.1 1.1ZM160.1 139a1.2 1.2 0 1 0 0-2.4 1.2 1.2 0 0 0 0 2.4ZM183.6 32.2a7.6 7.6 0 1 0 0-15.2 7.6 7.6 0 0 0 0 15.2ZM166 26.8a3.1 3.1 0 1 0 0-6.2 3.1 3.1 0 0 0 0 6.2Z"/><path fill="#2C49BF" d="M82 312.5s.1 0 .1-.1c2.3-1.1 3.3-.5 3.3-.5 1.1.7 1.2 3.5 0 4.2-.8.5-2.1-.2-2.6-.5-.7-.4-1.6-.9-1.6-1.8 0-.7.6-1.3 1.5-1.7"/><path stroke="#000" stroke-miterlimit="10" stroke-width="2" d="M82 312.5s.1 0 .1-.1c2.3-1.1 3.3-.5 3.3-.5 1.1.7 1.2 3.5 0 4.2-.8.5-2.1-.2-2.6-.5-.7-.4-1.6-.9-1.6-1.8 0-.7.6-1.3 1.5-1.7"/><path fill="#2C49BF" d="M109 310.8s.1 0 .1-.1c2.3-1.1 3.3-.5 3.3-.5 1.1.7 1.2 3.5 0 4.2-.8.5-2.1-.2-2.6-.5-.7-.4-1.6-.9-1.6-1.8 0-.7.6-1.3 1.5-1.7"/><path stroke="#000" stroke-miterlimit="10" stroke-width="2" d="M109 310.8s.1 0 .1-.1c2.3-1.1 3.3-.5 3.3-.5 1.1.7 1.2 3.5 0 4.2-.8.5-2.1-.2-2.6-.5-.7-.4-1.6-.9-1.6-1.8 0-.7.6-1.3 1.5-1.7"/><path fill="#2C49BF" d="M94.6 312.2s.1 0 .1-.1c2.3-1.1 3.3-.5 3.3-.5 1.1.7 1.2 3.5 0 4.2-.8.5-2.1-.2-2.6-.5-.7-.4-1.6-.9-1.6-1.8 0-.7.6-1.3 1.5-1.7"/><path stroke="#000" stroke-miterlimit="10" stroke-width="2" d="M94.6 312.2s.1 0 .1-.1c2.3-1.1 3.3-.5 3.3-.5 1.1.7 1.2 3.5 0 4.2-.8.5-2.1-.2-2.6-.5-.7-.4-1.6-.9-1.6-1.8 0-.7.6-1.3 1.5-1.7"/><path fill="#2C49BF" d="M171.7 310.7s.1 0 .1-.1c2.3-1.1 3.3-.5 3.3-.5 1.1.7 1.2 3.5 0 4.2-.8.5-2.1-.2-2.6-.5-.7-.4-1.6-.9-1.6-1.8 0-.7.6-1.3 1.5-1.7"/><path stroke="#000" stroke-miterlimit="10" stroke-width="2" d="M171.7 310.7s.1 0 .1-.1c2.3-1.1 3.3-.5 3.3-.5 1.1.7 1.2 3.5 0 4.2-.8.5-2.1-.2-2.6-.5-.7-.4-1.6-.9-1.6-1.8 0-.7.6-1.3 1.5-1.7"/><path fill="#2C49BF" stroke="#000" stroke-miterlimit="10" stroke-width="2" d="M156.7 310.8h.1s1-.2 3.3-.5c1.1.7 1.2 3.5 0 4.2-.9.5-2 .1-2.6-.5-.4-.4-.5-.9-.6-1.5-.2-.7-.2-1.6-.2-1.7ZM129.6 234.2s3.2.4 3.5 1.6c.1.3-.1.6-2 2.7-1.8 2-2.1 2.3-2.4 2.2-.6-.2-.4-1.9-.4-2.5.3-1.8.9-3.1 1.3-4ZM141.1 233.8s3.2.4 3.5 1.6c.1.3-.1.6-2 2.7-1.8 2-2.1 2.3-2.4 2.2-.6-.2-.4-1.9-.4-2.5.3-1.8.8-3.1 1.3-4Z"/></svg>