<svg width="240" height="314" fill="none" xmlns="http://www.w3.org/2000/svg"><g clip-path="url(#a)"><path d="M59.094 6.867C73.084-.03 90.719-.916 104.61 4.502c5.911 2.365 8.67 4.828 16.552 6.503 5.517 1.182 10.344 1.28 21.97.788 19.704-.887 18.621-1.872 23.547-1.576 23.35 1.38 39.015 21.773 39.704 22.758 6.7 8.966 3.35 10.64 11.527 29.261 11.133 25.32 19.015 26.404 20.788 40.887 2.168 17.537-7.586 32.512-10.443 37.044-7.093 11.133-16.65 17.734-23.941 25.813-.886.986-1.872 2.069-3.448 3.449-3.153 2.561-4.631 2.758-5.025 3.842-.788 2.66 6.7 6.207 10.444 9.655 12.512 11.626 15.566 28.572 17.34 42.759 0 0 .591 5.221-.887 11.822-.394 1.577-.887 3.252-2.168 4.828-1.872 2.167-5.123 3.941-6.601 2.956-1.379-.986-1.083-4.434.986-8.375-3.547 6.995-6.207 9.852-7.981 11.232-.197.197-.788.492-1.379 1.182-1.182 1.281-1.773 2.759-3.941 5.813-6.798 9.261-15.665 14.68-16.946 15.369-4.729 2.857-6.798 2.956-7.684 4.237l-.394.788c-1.577 4.039 3.743 10.443 9.655 19.31 5.024 7.488 6.01 10.247 5.024 12.316-.689 1.28-2.069 2.364-3.448 2.66-2.66.689-5.025-.986-5.813-1.577-3.054-2.167-3.547-5.221-4.63-5.024-.986.197-.591 2.266-2.266 5.418-.887 1.675-1.675 3.055-3.055 3.449-2.167.591-4.926-1.281-6.206-3.449-1.675-2.758-.69-5.517-1.577-5.812-.886-.197-2.561 2.561-3.448 4.63-1.182 2.759-.887 3.842-1.97 4.631-1.478 1.083-4.138.394-5.813-.789-3.646-2.66-1.774-8.177-2.66-18.522-.493-4.926-1.577-17.044-6.601-18.522-.197 0-.493-.098-.986-.098-4.335-.296-7.192.886-10.147 1.674-2.365.592-4.237.69-7.882.887-8.177.394-14.976.788-19.508-2.463-.492-.295-1.477-1.084-2.266-.788-1.773.591-2.068 4.532-1.97 6.897.296 6.699 4.631 12.709 10.049 20.098 1.971 2.759 3.646 4.729 3.054 6.897-.591 2.364-3.349 4.532-5.812 4.236-4.434-.493-6.306-8.965-8.079-8.473-1.675.394.098 7.488-3.054 9.261-1.97 1.084-5.222-.197-6.897-1.576-1.182-.985-1.97-2.069-2.266-2.66-1.28-2.365-1.182-4.729-1.182-4.631-.099 0 1.478 6.207-1.182 8.473-1.577 1.379-4.434.985-6.207 0-2.66-1.379-3.449-4.236-3.843-5.813-1.379-5.221 1.084-7.684 1.183-13.891 0-1.281-.69-4.04-1.97-9.655-3.45-14.877-4.533-17.143-5.518-18.818-2.463-4.138-4.04-4.335-7.882-8.572-11.625-12.413-9.064-25.221-15.468-26.601-3.842-.886-7.685 3.153-13.892 9.656-3.448 3.546-9.36 9.753-13.103 19.704-3.054 7.98-3.547 15.369-7.29 15.961-.887.098-1.577-.197-2.365-.493-4.926-2.168-6.108-9.655-7.29-17.34-1.676-10.739-.395-19.606.393-24.236.986-6.306 1.675-5.518 1.872-9.36.69-11.527-4.827-17.044-1.872-20.69 2.857-3.546 9.459-.098 12.02-4.039 1.084-1.675.296-2.759-.098-9.655-.395-6.601-.493-9.951 1.083-11.429 2.759-2.463 8.867-.985 11.035-.492 3.35.788 5.123 2.069 6.108 1.182.985-.887-.296-2.759-.197-6.798.099-2.759.887-4.729 1.576-6.503 1.281-3.349 2.266-6.009 4.73-6.995 1.083-.394 2.265-.394 4.827.394 7.488 2.266 12.02 6.207 12.61 5.518.297-.394-1.083-1.478-1.97-3.449-1.477-3.546-.197-7.192.197-8.374.296-.985 2.66-7.389 7.39-8.079 1.28-.197 2.364.197 4.532.788 1.97.591 4.138 1.577 7.684 3.843 5.616 3.744 6.207 5.32 7.685 5.024 2.66-.591 5.025-6.207 3.35-10.246-1.478-3.448-4.926-3.448-15.074-7.685-5.123-2.167-10.345-4.433-15.764-8.473-3.152-2.266-6.798-5.024-10.049-9.655-4.926-6.995-3.251-10.64-8.079-21.182-3.25-7.192-4.138-6.207-6.896-11.921-5.123-10.74-4.237-21.281-3.843-26.207 1.183-13.892 6.995-23.547 9.656-27.783 3.054-4.927 10.246-15.961 24.138-22.759z" fill="#C5DD8B" stroke="#000" stroke-width="2" stroke-miterlimit="10"/><path d="M2.05 201.842c-1.873 2.562-.789 6.798-.395 8.375l.69 2.758c.394 1.38.492 1.971.59 2.266 0 0 0 .099.1.296.69 2.463 1.773 4.433 1.674 6.502 0 1.577-.69 2.858-.788 2.858 0 0 .69-3.055 1.38-5.419.492-1.478 2.068-6.7 5.812-13.202 2.759-4.828 4.237-6.404 3.547-7.389-.591-.887-2.66-.493-6.01.295-3.744.788-5.616 1.182-6.6 2.66z" fill="#C5DD8B" stroke="#000" stroke-width="2" stroke-miterlimit="10"/><path d="M14.956 177.31c-1.183 1.38-.69 2.463-.591 8.572.197 8.67-.69 12.611.394 12.906.69.197 1.28-1.478 4.138-5.517 2.758-3.842 5.615-6.897 6.7-8.079 1.477-1.675 2.856-3.448 4.433-5.025 1.773-1.674 2.758-2.463 2.561-3.152-.295-.788-2.069-.591-5.419-.591-7.487-.099-10.443-1.183-12.216.886z" fill="#C5DD8B" stroke="#000" stroke-width="2" stroke-miterlimit="10"/><path d="M37.32 157.704c-.394.197-1.773.986-3.153 4.532-.492 1.183-1.083 2.956-1.773 8.572-.295 2.956 1.38 4.926.197 6.798-.492.788-1.28 1.281-1.182 1.379.098.197 2.66-1.478 4.138-2.561 1.28-.887 2.266-1.675 2.66-1.971 1.675-1.379 2.66-2.364 4.138-3.547 2.463-1.872 3.153-1.674 9.556-5.221 3.646-1.971 4.138-2.562 4.138-3.054-.098-.986-2.266-.986-7.29-2.956-3.252-1.281-4.532-2.168-7.39-2.463-1.773-.099-2.857-.197-4.039.492z" fill="#C5DD8B" stroke="#000" stroke-width="2" stroke-miterlimit="10"/><path d="M61.557 143.911c-3.35.789-5.222 3.843-5.616 4.532-.985 1.577-1.38 3.449-1.576 4.04-.198.689-.296 1.281-.296 1.478-.099.394-.197 1.477-.197 3.251 0 1.97 0 3.054.394 4.138.296.689.394 1.182.788 1.478 1.478 1.28 4.73-1.084 9.458-2.858 7.094-2.758 10.838-1.477 15.271-4.926.591-.394 2.857-2.167 2.66-2.364 0-.099-.492.295-.985.394-1.97.69-3.842-2.956-8.177-5.32-3.744-1.971-5.025-3.252-8.178-3.843-2.068-.394-3.25-.098-3.546 0z" fill="#C5DD8B" stroke="#000" stroke-width="2" stroke-miterlimit="10"/><path d="M127.665 248.936c-1.576 4.63-3.744 8.177-5.419 10.443-1.675 2.365-5.517 7.587-12.315 11.232-5.025 2.66-8.571 2.857-8.473 3.842.099 1.478 7.389 2.365 12.709 2.66 12.02.69 21.478-1.379 25.419-2.364 16.946-3.941 28.375-6.7 38.522-16.552 6.7-6.502 10.247-13.596 12.316-17.734.886-1.773 4.729-9.557 6.798-20.985 0 0 .394-2.069.689-4.335 1.971-14.089-1.773-34.286-2.857-40.197 13.399 8.079 19.212 15.862 21.576 20.098.296.394.69 1.183 1.183 2.168 4.827 9.064 5.615 20.295 5.714 21.773.296 4.828 0 8.178-.197 10.838-.69 6.404-1.773 8.473-2.463 9.556-1.478 2.365-3.448 3.744-4.631 4.631-2.758 1.97-5.221 2.857-6.207 3.054-2.561.788-5.123 1.478-6.206.394-.986-.985.197-2.857 1.97-9.655 1.182-4.631 1.281-5.911 1.379-6.503.099-3.251-.689-5.911-1.478-7.586a22.332 22.332 0 0 0-3.349-3.941 22.14 22.14 0 0 0-4.631-3.349" fill="#C5DD8B"/><path d="M127.665 248.936c-1.576 4.63-3.744 8.177-5.419 10.443-1.675 2.365-5.517 7.587-12.315 11.232-5.025 2.66-8.571 2.857-8.473 3.842.099 1.478 7.389 2.365 12.709 2.66 12.02.69 21.478-1.379 25.419-2.364 16.946-3.941 28.375-6.7 38.522-16.552 6.7-6.502 10.247-13.596 12.316-17.734.886-1.773 4.729-9.557 6.798-20.985 0 0 .394-2.069.689-4.335 1.971-14.089-1.773-34.286-2.857-40.197 13.399 8.079 19.212 15.862 21.576 20.098.296.394.69 1.183 1.183 2.168 4.827 9.064 5.615 20.295 5.714 21.773.296 4.828 0 8.178-.197 10.838-.69 6.404-1.773 8.473-2.463 9.556-1.478 2.365-3.448 3.744-4.631 4.631-2.758 1.97-5.221 2.857-6.207 3.054-2.561.788-5.123 1.478-6.206.394-.986-.985.197-2.857 1.97-9.655 1.182-4.631 1.281-5.911 1.379-6.503.099-3.251-.689-5.911-1.478-7.586a22.332 22.332 0 0 0-3.349-3.941 22.14 22.14 0 0 0-4.631-3.349" stroke="#000" stroke-width="2" stroke-miterlimit="10"/><path d="M85.3 176.424c-.492 1.97-.985 5.517 0 9.655.198.886 2.168 8.473 8.868 12.709 7.192 4.532 11.034-.394 21.576 4.237 5.911 2.561 8.867 6.009 10.443 8.473.788 1.182 2.463 3.546 2.266 6.896v.099c0 3.349-1.872 5.221-3.054 7.684-1.478 2.956-1.576 5.518-1.675 7.094-.098 1.675-.295 5.419 1.281 6.01 1.576.591 4.039-2.069 5.222-3.251.492-.493 1.182-1.281 2.463-3.35 2.167-3.35 3.349-6.207 3.448-6.207.296.098-4.138 7.685-1.576 10.837 1.083 1.281 3.152 1.577 4.63 1.183 1.379-.394 2.168-1.281 5.025-6.207 4.138-6.995 4.63-8.67 5.024-10.05.394-1.773.592-2.955.789-5.418v-.099c.591-6.601 0-10.739 0-10.739-.887-6.207-4.434-10.739-5.419-11.921-2.562-3.153-5.123-4.926-6.897-6.207-4.433-2.955-5.911-2.561-11.921-6.207-3.251-1.97-5.517-3.744-6.207-4.236-3.054-2.463-5.32-4.729-6.896-6.503" fill="#C5DD8B"/><path d="M85.3 176.424c-.492 1.97-.985 5.517 0 9.655.198.886 2.168 8.473 8.868 12.709 7.192 4.532 11.034-.394 21.576 4.237 5.911 2.561 8.867 6.009 10.443 8.473.788 1.182 2.463 3.546 2.266 6.896v.099c0 3.349-1.872 5.221-3.054 7.684-1.478 2.956-1.576 5.518-1.675 7.094-.098 1.675-.295 5.419 1.281 6.01 1.576.591 4.039-2.069 5.222-3.251.492-.493 1.182-1.281 2.463-3.35 2.167-3.35 3.349-6.207 3.448-6.207.296.098-4.138 7.685-1.576 10.837 1.083 1.281 3.152 1.577 4.63 1.183 1.379-.394 2.168-1.281 5.025-6.207 4.138-6.995 4.63-8.67 5.024-10.05.394-1.773.592-2.955.789-5.418v-.099c.591-6.601 0-10.739 0-10.739-.887-6.207-4.434-10.739-5.419-11.921-2.562-3.153-5.123-4.926-6.897-6.207-4.433-2.955-5.911-2.561-11.921-6.207-3.251-1.97-5.517-3.744-6.207-4.236-3.054-2.463-5.32-4.729-6.896-6.503" stroke="#000" stroke-width="2" stroke-miterlimit="10"/><path d="M128.355 216.818c.886.886 2.758 2.758 5.911 3.645 3.35 1.084 6.108.591 7.291.296 2.758-.986 5.615-1.872 8.374-2.858" fill="#C5DD8B"/><path d="M128.355 216.818c.886.886 2.758 2.758 5.911 3.645 3.35 1.084 6.108.591 7.291.296 2.758-.986 5.615-1.872 8.374-2.858" stroke="#000" stroke-width="2" stroke-miterlimit="10"/><path d="M206.384 225.094c.099 0 .394 1.28 1.38 2.561.985 1.379 2.266 2.168 2.66 2.365 1.773.985 3.349 1.083 5.418 1.28 1.084.099 2.66.099 4.631-.394 2.069-.492 2.562-1.083 2.66-1.28.788-1.183.493-2.66.394-3.055.296 1.774.296 3.35.296 4.434-.099 1.773-.394 3.153-.591 4.236-.099.493-.198 1.084-.395 1.577-.689 2.955-1.182 3.842-1.477 4.335-.493.788-1.084 1.379-1.675 1.97-1.084 1.084-2.168 1.576-2.463 1.774-1.084.591-2.168 1.083-2.857.689-.493-.295-.592-.887-.69-1.281-.197-1.477.591-2.167.985-3.94.493-1.774.394-3.449.197-3.449-.098 0-.394 2.759-1.773 5.912 0 0-.887 2.167-2.759 3.645-.197.197-.788.69-1.478.492-.689.198-2.955.789-3.941-.394-.591-.689-.394-1.674.099-4.138.887-4.137 1.281-6.108 1.478-7.389.394-2.955.788-4.433.591-6.108-.099-1.971-.788-3.744-.69-3.842z" fill="#C5DD8B" stroke="#000" stroke-width="2" stroke-miterlimit="10"/><path d="M146.975 39.97c13.202-3.743 23.449-2.561 25.419 1.97 1.379 3.055-1.084 7.587-3.448 10.05-3.251 3.35-8.473 4.73-12.71 3.054-2.955-1.083-4.63-3.35-5.812-5.024-2.858-3.941-3.35-8.08-3.449-10.05z" fill="#000" stroke="#000" stroke-miterlimit="10"/><path d="M155.941 46.67a2.364 2.364 0 1 0 0-4.728 2.364 2.364 0 0 0 0 4.728z" fill="#fff" stroke="#000" stroke-miterlimit="10"/><path d="M39.98 35.537c-.197.099-.788.296-1.083.788-.395.591-.296 1.28 0 2.562.197 1.182.59 1.97.69 2.266.393.886.787 1.97 1.674 2.955.591.69 1.478 1.38 1.675 1.183.197-.099-.099-.788-.493-1.774-.197-.492-.295-.59-.394-.887-.394-.985-.492-1.773-.59-2.463-.198-1.182-.297-1.773-.1-2.364.1-.493.296-.788.296-1.38 0-.196-.098-.788-.394-.985-.493-.197-.887 0-1.28.099zM63.823 37.409c.197.098.985.394 1.28.985.395.69.197 1.38-.394 2.562-.492 1.083-.985 1.872-1.182 2.069-.591.788-1.28 1.773-2.66 2.561-.887.591-2.069 1.084-2.266.887-.197-.099.296-.788.985-1.675.296-.394.394-.493.591-.788a6.593 6.593 0 0 0 1.182-2.365c.395-1.182.592-1.773.493-2.364-.098-.493-.295-.788-.197-1.38.099-.197.197-.788.69-.886.492 0 1.084.295 1.478.394zM63.626 97.409A146.183 146.183 0 0 0 36.63 94.65l26.995 2.759zM73.28 98.985c-.098 0-.098-.098-.196-.098h-.197c-.493 0-.986-.099-1.478-.296-.296-.098-.591-.098-.788-.197-.099 0-.197-.098-.296-.098h-.296c-.69 0-1.28-.099-1.773-.296-.197 0-.493-.099-.69-.099l-3.94-.394c2.955.591 5.714 1.183 8.078 1.872 1.675.394 3.646.887 5.813 1.577l-4.236-1.97zM130.128 123.025a223.635 223.635 0 0 1-16.453-6.503c-6.897-3.153-10.049-5.123-14.384-7.29-8.276-4.237-15.764-6.7-21.675-8.375l21.084 8.769a182.468 182.468 0 0 0 18.62 9.261c17.833 7.487 34.384 11.034 47.685 12.611-15.271-2.365-26.995-5.813-34.877-8.473z" fill="#000" stroke="#000" stroke-miterlimit="10"/><path d="M52.493 96.522c-1.281.985-.986 3.35-.592 6.207.296 2.365.789 5.222 2.956 7.685 1.084 1.182 2.168 2.463 3.744 2.463 2.364 0 4.04-2.956 5.123-4.729.985-1.675 2.168-4.138 2.168-7.192 0-1.183 0-1.774-.394-2.365-.986-1.478-2.858-1.084-8.178-1.872-3.35-.492-4.04-.788-4.827-.197zM76.236 100.66c-2.069 1.478-1.28 6.995-1.083 8.276 0 .197.098.394.098.493.296 1.871 1.478 7.783 4.828 8.374 1.872.296 3.645-1.084 4.63-1.773 1.577-1.183 2.463-2.562 3.252-3.744.69-1.183 1.182-2.168 1.477-2.857.789-1.872 1.183-2.759.986-3.35-.296-1.281-1.872-1.774-6.404-3.35-6.503-2.266-7.094-2.562-7.784-2.069zM100.473 111.3l-.296.296c-2.857 3.054-1.182 9.261-1.084 9.852.592 2.168 1.084 3.843 2.464 4.532 1.477.788 3.448.197 4.926-.197 1.083-.295 1.97-.689 2.463-.985.689-.394 1.773-.985 2.955-2.069.493-.493 1.38-1.379 2.069-2.66.592-1.084.887-1.675.789-2.266-.099-1.379-1.971-1.872-5.813-3.547-4.828-2.364-7.094-4.039-8.473-2.956zM126.384 122.828c-2.561 1.379-2.069 6.404-1.97 7.192.197 2.463 1.478 6.798 4.138 7.389.985.197 1.97-.296 4.039-1.281 2.069-.985 3.744-1.773 5.123-3.448.887-1.084 1.281-2.168 1.872-3.547.493-1.182.69-1.773.591-2.167-.394-1.281-2.66-1.38-6.404-2.266-5.123-1.38-5.911-2.661-7.389-1.872z" fill="#fff" stroke="#000" stroke-miterlimit="10"/><path d="M38.01 194.552a4.828 4.828 0 1 0-.001-9.656 4.828 4.828 0 0 0 0 9.656z" fill="#ACD169" stroke="#fff" stroke-miterlimit="10"/><path d="M88.946 228.542a4.828 4.828 0 1 0-.001-9.656 4.828 4.828 0 0 0 0 9.656zM38.404 195.044a5.517 5.517 0 1 0 0-11.034 5.517 5.517 0 0 0 0 11.034z" fill="#ACD169"/><path d="M39.882 191.695c.054 0 .098-.309.098-.69 0-.381-.044-.69-.098-.69-.055 0-.099.309-.099.69 0 .381.044.69.099.69zM42.05 191.005a.591.591 0 1 0-.001-1.183.591.591 0 0 0 0 1.183zM48.256 181.054a3.448 3.448 0 1 0 0-6.897 3.448 3.448 0 0 0 0 6.897zM25.399 201.645a2.758 2.758 0 1 0 0-5.517 2.758 2.758 0 0 0 0 5.517zM34.759 207.852a4.729 4.729 0 1 0 0-9.458 4.729 4.729 0 0 0 0 9.458zM24.118 215.734a4.04 4.04 0 1 0 0-8.08 4.04 4.04 0 0 0 0 8.08zM14.463 220.956a2.66 2.66 0 1 0 0-5.32 2.66 2.66 0 0 0 0 5.32zM93.97 235.832a1.773 1.773 0 1 0 .002-3.545 1.773 1.773 0 0 0-.002 3.545zM82.148 234.158a2.463 2.463 0 1 0 0-4.926 2.463 2.463 0 0 0 0 4.926zM35.35 231.892a4.631 4.631 0 1 0-.001-9.262 4.631 4.631 0 0 0 0 9.262zM27.665 240.956a2.266 2.266 0 1 0 0-4.533 2.266 2.266 0 0 0 0 4.533zM18.108 249.626a3.645 3.645 0 1 0 0-7.29 3.645 3.645 0 0 0 0 7.29zM13.478 260.365a1.675 1.675 0 1 0 0-3.35 1.675 1.675 0 0 0 0 3.35zM12.69 267.852a.788.788 0 1 0 0-1.576.788.788 0 0 0 0 1.576zM77.616 275.734c1.469 0 2.66-1.5 2.66-3.35s-1.191-3.35-2.66-3.35c-1.47 0-2.66 1.5-2.66 3.35s1.19 3.35 2.66 3.35zM82.148 287.163a2.463 2.463 0 1 0 0-4.927 2.463 2.463 0 0 0 0 4.927zM86.975 279.379a2.463 2.463 0 1 0 .001-4.925 2.463 2.463 0 0 0 0 4.925zM93.97 286.571a1.773 1.773 0 1 0 0-3.547 1.773 1.773 0 0 0 0 3.547zM154.857 283.025a3.054 3.054 0 1 0 0-6.109 3.054 3.054 0 0 0 0 6.109zM164.512 283.123a1.577 1.577 0 1 0 0-3.153 1.577 1.577 0 0 0 0 3.153zM166.581 277.31c1.197 0 2.168-.661 2.168-1.478 0-.816-.971-1.477-2.168-1.477s-2.167.661-2.167 1.477c0 .817.97 1.478 2.167 1.478zM175.842 272.286a1.478 1.478 0 1 0 0-2.955 1.478 1.478 0 0 0 0 2.955zM183.231 263.813c.653 0 1.183-.794 1.183-1.774 0-.979-.53-1.773-1.183-1.773-.652 0-1.182.794-1.182 1.773 0 .98.53 1.774 1.182 1.774zM187.764 256.424c.598 0 1.083-.177 1.083-.394 0-.218-.485-.395-1.083-.395-.599 0-1.084.177-1.084.395 0 .217.485.394 1.084.394zM191.31 252.089a.789.789 0 1 0 0-1.577.789.789 0 0 0 0 1.577zM195.251 246.079a.887.887 0 1 0 0-1.774.887.887 0 0 0 0 1.774zM216.236 126.768a6.009 6.009 0 1 0-6.009-6.009 6.009 6.009 0 0 0 6.009 6.009zM216.335 110.217a3.645 3.645 0 1 0 0-7.29 3.645 3.645 0 0 0 0 7.29zM221.163 100.167c3.21 0 5.812-2.293 5.812-5.123s-2.602-5.123-5.812-5.123c-3.211 0-5.813 2.294-5.813 5.123 0 2.83 2.602 5.123 5.813 5.123zM216.039 84.108a3.35 3.35 0 1 0 0-6.7 3.35 3.35 0 0 0 0 6.7zM204.808 134.946c2.231 0 4.039-1.368 4.039-3.054 0-1.687-1.808-3.055-4.039-3.055s-4.04 1.368-4.04 3.055c0 1.686 1.809 3.054 4.04 3.054zM193.97 151.005c2.014 0 3.646-1.323 3.646-2.956 0-1.632-1.632-2.955-3.646-2.955-2.013 0-3.645 1.323-3.645 2.955 0 1.633 1.632 2.956 3.645 2.956zM208.749 150.414a3.942 3.942 0 1 0-.001-7.883 3.942 3.942 0 0 0 .001 7.883zM219.586 140.365a4.237 4.237 0 1 0 0-8.474 4.237 4.237 0 0 0 0 8.474zM231.704 117.113c2.612 0 4.729-1.852 4.729-4.138 0-2.285-2.117-4.138-4.729-4.138-2.611 0-4.729 1.853-4.729 4.138 0 2.286 2.118 4.138 4.729 4.138zM197.645 167.724a5.419 5.419 0 1 0 0-10.838 5.419 5.419 0 0 0 0 10.838zM196.926 45.783c3.102 0 5.616-1.94 5.616-4.335 0-2.394-2.514-4.335-5.616-4.335-3.101 0-5.616 1.941-5.616 4.335s2.515 4.335 5.616 4.335zM210.522 63.32a3.843 3.843 0 1 0 0-7.686 3.843 3.843 0 0 0 0 7.686zM202.739 57.704a1.97 1.97 0 1 0 0-3.94 1.97 1.97 0 0 0 0 3.94zM209.635 77.31a2.858 2.858 0 1 0 0-5.715 2.858 2.858 0 0 0 0 5.715zM70.818 104.305a1.773 1.773 0 1 0 0-3.547 1.773 1.773 0 0 0 0 3.547zM70.818 113.764a1.774 1.774 0 1 0 0-3.547 1.774 1.774 0 0 0 0 3.547zM93.97 113.764a1.774 1.774 0 1 0 0-3.547 1.774 1.774 0 0 0 0 3.547zM94.759 120.562a.986.986 0 1 0-.002-1.972.986.986 0 0 0 .002 1.972zM118.798 125.094a1.282 1.282 0 1 0-.001-2.563 1.282 1.282 0 0 0 .001 2.563zM119.685 131.99a.985.985 0 1 0 0-1.97.985.985 0 0 0 0 1.97zM145.005 135.832a1.97 1.97 0 1 0 0-3.94 1.97 1.97 0 0 0 0 3.94zM153.872 142.532c1.143 0 2.069-.485 2.069-1.084 0-.598-.926-1.083-2.069-1.083-1.143 0-2.069.485-2.069 1.083 0 .599.926 1.084 2.069 1.084zM157.123 136.227a1.183 1.183 0 1 0-.001-2.365 1.183 1.183 0 0 0 .001 2.365zM180.276 31.005a7.488 7.488 0 1 0 0-14.976 7.488 7.488 0 0 0 0 14.976zM162.936 25.685a3.054 3.054 0 1 0 0-6.108 3.054 3.054 0 0 0 0 6.108z" fill="#ACD169"/><path d="M80.177 307.163s.099 0 .099-.099c2.266-1.084 3.251-.493 3.251-.493 1.084.69 1.182 3.449 0 4.138-.788.493-2.069-.197-2.561-.492-.69-.394-1.577-.887-1.577-1.774 0-.689.591-1.28 1.478-1.675" fill="#2C49BF"/><path d="M80.177 307.163s.099 0 .099-.099c2.266-1.084 3.251-.493 3.251-.493 1.084.69 1.182 3.449 0 4.138-.788.493-2.069-.197-2.561-.492-.69-.394-1.577-.887-1.577-1.774 0-.689.591-1.28 1.478-1.675" stroke="#000" stroke-width="2" stroke-miterlimit="10"/><path d="M106.778 305.488s.099 0 .099-.099c2.266-1.084 3.251-.492 3.251-.492 1.084.689 1.182 3.448 0 4.137-.788.493-2.069-.197-2.562-.492-.689-.394-1.576-.887-1.576-1.774 0-.689.591-1.28 1.478-1.674" fill="#2C49BF"/><path d="M106.778 305.488s.099 0 .099-.099c2.266-1.084 3.251-.492 3.251-.492 1.084.689 1.182 3.448 0 4.137-.788.493-2.069-.197-2.562-.492-.689-.394-1.576-.887-1.576-1.774 0-.689.591-1.28 1.478-1.674" stroke="#000" stroke-width="2" stroke-miterlimit="10"/><path d="M92.591 306.867s.099 0 .099-.099c2.266-1.083 3.25-.492 3.25-.492 1.085.689 1.183 3.448 0 4.138-.787.492-2.068-.197-2.56-.493-.69-.394-1.577-.887-1.577-1.773 0-.69.591-1.281 1.478-1.675" fill="#2C49BF"/><path d="M92.591 306.867s.099 0 .099-.099c2.266-1.083 3.25-.492 3.25-.492 1.085.689 1.183 3.448 0 4.138-.787.492-2.068-.197-2.56-.493-.69-.394-1.577-.887-1.577-1.773 0-.69.591-1.281 1.478-1.675" stroke="#000" stroke-width="2" stroke-miterlimit="10"/><path d="M183.429 303.025s.098 0 .098-.099c2.266-1.084 3.251-.493 3.251-.493 1.084.69 1.183 3.449 0 4.138-.788.493-2.069-.197-2.561-.492-.69-.394-1.577-.887-1.577-1.774 0-.689.592-1.28 1.478-1.674" fill="#2C49BF"/><path d="M183.429 303.025s.098 0 .098-.099c2.266-1.084 3.251-.493 3.251-.493 1.084.69 1.183 3.449 0 4.138-.788.493-2.069-.197-2.561-.492-.69-.394-1.577-.887-1.577-1.774 0-.689.592-1.28 1.478-1.674" stroke="#000" stroke-width="2" stroke-miterlimit="10"/><path d="M168.552 305.389s.098 0 .098-.098c2.266-1.084 3.251-.493 3.251-.493 1.084.69 1.183 3.448 0 4.138-.788.493-2.068-.197-2.561-.493-.69-.394-1.576-.886-1.576-1.773 0-.69.591-1.281 1.477-1.675" fill="#2C49BF"/><path d="M168.552 305.389s.098 0 .098-.098c2.266-1.084 3.251-.493 3.251-.493 1.084.69 1.183 3.448 0 4.138-.788.493-2.068-.197-2.561-.493-.69-.394-1.576-.886-1.576-1.773 0-.69.591-1.281 1.477-1.675" stroke="#000" stroke-width="2" stroke-miterlimit="10"/><path d="M153.773 305.488h.099s.985-.197 3.251-.493c1.084.69 1.182 3.448 0 4.138-.887.493-1.97.099-2.561-.493-.394-.394-.493-.886-.592-1.477-.197-.69-.197-1.577-.197-1.675zM127.074 230.02s3.153.394 3.448 1.576c.099.296-.098.591-1.97 2.66-1.774 1.971-2.069 2.266-2.365 2.168-.591-.197-.394-1.872-.394-2.463.296-1.774.887-3.055 1.281-3.941zM138.404 229.626s3.153.394 3.448 1.576c.099.296-.098.591-1.97 2.66-1.774 1.971-2.069 2.266-2.365 2.168-.591-.197-.394-1.872-.394-2.463.296-1.774.788-3.055 1.281-3.941z" fill="#2C49BF" stroke="#000" stroke-width="2" stroke-miterlimit="10"/><path d="M217.517 238.591c.099-.493.099-.69.296-.887.591-.591 2.069-.591 2.463.099.394.591-.296 1.576-1.478 3.448-.197.394-.591.887-1.182 1.38-.493.394-1.281.886-1.478.689-.099-.098.098-.394.295-.788.69-1.675.986-3.645 1.084-3.941zM208.552 238c.295-.197.492.099 1.478.394 1.379.394 1.97.197 2.167.591.099.197.099.493-.69 1.971-.689 1.379-1.083 2.069-1.477 2.463-.69.788-1.971 1.872-2.365 1.576-.296-.197-.099-.591.099-2.463.098-1.084 0-1.281.098-2.167.296-2.069.591-2.266.69-2.365z" fill="#2C49BF" stroke="#000" stroke-miterlimit="10"/></g><defs><clipPath id="a"><path fill="#fff" d="M0 0h240v313.872H0z"/></clipPath></defs></svg>